<?xml version="1.0" standalone="no"?>
<!DOCTYPE svg PUBLIC "-//W3C//DTD SVG 20010904//EN"
 "http://www.w3.org/TR/2001/REC-SVG-20010904/DTD/svg10.dtd">
<svg version="1.0" xmlns="http://www.w3.org/2000/svg"
 width="1440.000000pt" height="1440.000000pt" viewBox="0 0 1440.000000 1440.000000"
 preserveAspectRatio="xMidYMid meet">
<metadata>
Created by potrace 1.16, written by Peter Selinger 2001-2019
</metadata>
<g transform="translate(0.000000,1440.000000) scale(0.100000,-0.100000)"
fill="#000000" stroke="none">
<path d="M9033 9540 c-12 -5 -32 -23 -44 -39 l-23 -31 -1460 0 -1461 0 -52
-24 c-96 -45 -135 -132 -133 -291 1 -44 1 -115 1 -158 l-1 -79 -55 4 c-30 1
-55 0 -55 -4 0 -5 25 -8 55 -8 l55 0 0 -1425 c0 -1016 3 -1439 11 -1476 9 -43
21 -63 63 -105 42 -42 62 -54 105 -63 37 -8 560 -11 1860 -11 2020 0 1869 -6
1948 72 60 59 73 108 73 275 l0 133 53 1 c29 1 39 4 22 6 -16 2 -40 6 -52 8
l-23 5 0 960 0 960 336 0 336 0 34 34 34 34 0 571 c0 492 -2 576 -15 601 -32
62 0 60 -832 59 -417 0 -768 -4 -780 -9z m-855 -477 c-417 -2 -1099 -2 -1515
0 -417 1 -76 2 757 2 833 0 1174 -1 758 -2z m1797 -118 c0 -6 -128 -11 -357
-13 -315 -2 -358 0 -358 13 0 13 43 15 358 13 229 -2 357 -7 357 -13z m-290
-205 c0 -13 -31 -15 -204 -18 -118 -1 -209 2 -214 7 -27 27 9 31 211 29 176
-3 207 -5 207 -18z m-3220 -30 c-4 -6 5 -10 20 -10 14 0 40 -7 56 -16 17 -8
37 -13 45 -10 9 3 12 1 9 -4 -3 -6 -2 -10 2 -10 12 0 103 -89 101 -98 -1 -4 8
-34 21 -67 31 -82 27 -196 -12 -271 -34 -67 -114 -138 -180 -161 -70 -24 -167
-22 -236 5 -30 12 -57 19 -61 17 -4 -3 -14 3 -21 13 -12 15 -12 16 1 7 9 -5 7
-2 -5 8 -62 55 -85 77 -80 77 2 0 -5 19 -18 43 -18 34 -22 60 -23 142 -1 55 1
102 5 105 14 11 52 91 47 99 -3 5 2 15 11 22 11 10 14 10 9 2 -5 -9 -2 -11 7
-7 8 3 18 15 21 27 3 12 8 18 12 14 3 -3 21 4 38 16 50 37 76 46 156 55 41 5
76 10 78 11 2 0 0 -3 -3 -9z m1773 -180 c7 -45 7 -45 -561 -45 -295 0 -532 2
-527 3 7 3 8 8 1 16 -6 7 -8 21 -5 32 5 19 17 19 547 17 536 -2 542 -3 545
-23z m1629 -1738 c-1 -251 -2 -45 -2 458 0 503 1 709 2 457 2 -251 2 -663 0
-915z m-2192 1119 c3 -5 0 -13 -6 -17 -8 -5 -7 -9 2 -15 26 -16 -38 -20 -281
-17 l-245 3 -3 28 -3 27 265 0 c153 0 267 -4 271 -9z m1052 -127 c14 -14 14
-17 1 -30 -22 -22 -792 -21 -814 1 -13 12 -13 17 -2 29 11 13 72 15 406 16
345 0 395 -2 409 -16z m-143 -292 c2 -4 -2 -16 -10 -27 -14 -19 -29 -20 -553
-23 -509 -2 -538 -2 -538 15 -1 43 -6 43 558 43 296 0 540 -3 543 -8z m596
-22 l0 -30 -215 0 c-182 0 -217 2 -221 15 -4 8 -4 22 0 30 4 13 39 15 221 15
l215 0 0 -30z m246 -145 c8 -7 14 -25 14 -39 l0 -26 -208 0 c-197 0 -208 1
-220 20 -10 17 -10 24 2 43 15 22 18 22 207 19 147 -2 195 -6 205 -17z m-1803
-192 c12 -3 17 -12 15 -26 -3 -22 -5 -22 -246 -25 -211 -2 -243 0 -248 13 -4
9 3 24 17 36 23 20 32 20 234 14 115 -3 218 -9 228 -12z m220 -268 c22 -9 22
-16 -3 -43 -20 -21 -29 -22 -176 -22 -121 0 -159 3 -170 14 -16 17 -19 53 -4
58 19 6 335 0 353 -7z m1487 -20 c0 -13 -5 -27 -12 -31 -13 -8 -322 -6 -343 2
-7 3 -12 16 -12 29 0 14 3 22 8 19 5 -3 9 -2 9 3 0 4 79 7 175 5 l175 -3 0
-24z m-1542 -227 c7 -7 12 -21 12 -32 0 -21 -4 -21 -317 -20 -295 0 -318 1
-321 18 -9 46 -11 46 311 46 222 0 306 -3 315 -12z m1807 -318 c4 -7 -137 -10
-417 -9 -233 1 -412 5 -398 9 38 12 808 12 815 0z m-782 -427 c-501 -2 -1325
-2 -1830 0 -505 1 -95 2 912 2 1007 0 1420 -1 918 -2z"/>
<path d="M6390 8523 c-64 -23 -44 -133 24 -133 56 0 93 78 55 115 -17 16 -58
26 -79 18z"/>
<path d="M6340 8339 c-36 -21 -80 -78 -80 -104 0 -13 23 -15 156 -15 l156 0
-6 26 c-11 44 -36 72 -80 94 -53 25 -101 25 -146 -1z"/>
<path d="M3972 8339 c-18 -12 -53 -22 -86 -24 -61 -3 -103 -27 -126 -69 -7
-14 -19 -26 -26 -26 -8 0 -21 -12 -30 -26 -16 -24 -16 -28 4 -77 12 -29 22
-66 22 -83 0 -33 51 -94 102 -120 25 -13 28 -12 38 5 15 29 13 37 -21 70 -40
41 -37 77 6 75 17 -1 39 -5 50 -8 16 -6 27 2 52 38 32 46 33 46 92 46 56 0 63
3 101 38 29 29 40 47 40 69 0 37 -13 49 -65 58 -22 4 -58 18 -81 30 l-40 24
-32 -20z"/>
<path d="M3633 7820 c-192 -28 -299 -103 -360 -252 -139 -339 -151 -929 -23
-1136 11 -18 20 -45 20 -60 0 -46 29 -166 42 -177 10 -7 13 -60 13 -200 0
-169 2 -198 22 -261 25 -77 73 -156 116 -187 37 -28 239 -36 616 -25 161 5
296 7 299 3 3 -3 -20 -85 -52 -183 -134 -408 -247 -788 -243 -817 3 -24 -5
-42 -40 -88 -25 -32 -43 -64 -40 -71 3 -7 65 -56 139 -108 73 -53 151 -110
173 -126 43 -32 54 -31 74 5 14 28 -5 79 -49 135 -17 20 -30 48 -30 62 0 14 1
26 3 26 2 0 24 -7 49 -16 26 -8 63 -14 84 -12 33 3 44 11 76 53 44 57 219 407
299 598 39 93 56 123 61 110 4 -10 26 -137 48 -283 66 -426 72 -446 125 -456
l35 -6 0 -74 0 -74 228 2 227 3 3 27 c3 22 -5 33 -37 56 -22 16 -62 35 -88 41
-76 19 -95 45 -44 56 56 12 56 14 55 314 -1 477 -48 881 -120 1042 -51 114
-224 243 -506 378 -135 65 -325 146 -412 175 -17 6 -16 8 7 26 19 15 28 34 32
68 10 78 34 131 61 138 13 3 24 8 24 10 0 1 -12 40 -26 85 l-26 81 33 34 c37
39 66 51 82 35 8 -8 5 -19 -11 -41 l-23 -30 444 0 c339 0 447 3 459 13 9 7 45
110 83 242 36 127 73 250 81 274 19 60 18 88 -5 101 -13 6 -152 10 -385 10
-299 0 -367 -3 -379 -14 -7 -8 -26 -57 -42 -110 -16 -55 -33 -95 -39 -93 -6 2
-67 21 -136 42 -69 21 -131 42 -137 48 -8 6 -13 34 -13 71 -1 120 -54 307
-112 393 -42 63 -173 120 -320 139 -43 6 -48 5 -48 -12 0 -33 -29 -64 -58 -64
-36 0 -90 34 -104 65 -11 23 -16 25 -82 24 -39 -1 -94 -5 -123 -9z"/>
<path d="M10112 4643 l3 -88 36 -3 c34 -3 36 -5 56 -70 19 -59 42 -142 90
-319 l14 -51 242 -4 c133 -2 245 -1 249 2 8 6 57 168 77 255 7 28 21 80 32
117 19 66 20 67 57 70 l37 3 3 88 3 87 -451 0 -451 0 3 -87z"/>
</g>
</svg>
